<svg id="visual" viewBox="0 0 960 50" width="960" height="50" xmlns="http://www.w3.org/2000/svg" xmlns:xlink="http://www.w3.org/1999/xlink" version="1.1"><path d="M0 34L8.5 33.5C17 33 34 32 50.8 29.3C67.7 26.7 84.3 22.3 101.2 23C118 23.7 135 29.3 151.8 28C168.7 26.7 185.3 18.3 202.2 16C219 13.7 236 17.3 252.8 21.3C269.7 25.3 286.3 29.7 303.2 29.8C320 30 337 26 353.8 25C370.7 24 387.3 26 404.2 25.5C421 25 438 22 454.8 23.5C471.7 25 488.3 31 505.2 33.8C522 36.7 539 36.3 555.8 32C572.7 27.7 589.3 19.3 606.2 15.3C623 11.3 640 11.7 656.8 16C673.7 20.3 690.3 28.7 707.2 32.7C724 36.7 741 36.3 757.8 32.3C774.7 28.3 791.3 20.7 808.2 19.5C825 18.3 842 23.7 858.8 26.3C875.7 29 892.3 29 909.2 26.8C926 24.7 943 20.3 951.5 18.2L960 16L960 51L951.5 51C943 51 926 51 909.2 51C892.3 51 875.7 51 858.8 51C842 51 825 51 808.2 51C791.3 51 774.7 51 757.8 51C741 51 724 51 707.2 51C690.3 51 673.7 51 656.8 51C640 51 623 51 606.2 51C589.3 51 572.7 51 555.8 51C539 51 522 51 505.2 51C488.3 51 471.7 51 454.8 51C438 51 421 51 404.2 51C387.3 51 370.7 51 353.8 51C337 51 320 51 303.2 51C286.3 51 269.7 51 252.8 51C236 51 219 51 202.2 51C185.3 51 168.7 51 151.8 51C135 51 118 51 101.2 51C84.3 51 67.7 51 50.8 51C34 51 17 51 8.5 51L0 51Z" fill="#334155" stroke-linecap="round" stroke-linejoin="miter"></path></svg>