<svg id="visual" viewBox="0 0 960 50" width="960" height="50" xmlns="http://www.w3.org/2000/svg" xmlns:xlink="http://www.w3.org/1999/xlink" version="1.1"><path d="M0 31L7.7 29.3C15.3 27.7 30.7 24.3 45.8 21.3C61 18.3 76 15.7 91.2 14.3C106.3 13 121.7 13 137 15.8C152.3 18.7 167.7 24.3 183 27.7C198.3 31 213.7 32 228.8 32.8C244 33.7 259 34.3 274.2 32.2C289.3 30 304.7 25 320 22.2C335.3 19.3 350.7 18.7 365.8 17.3C381 16 396 14 411.2 16C426.3 18 441.7 24 457 24.3C472.3 24.7 487.7 19.3 503 17.3C518.3 15.3 533.7 16.7 548.8 17.8C564 19 579 20 594.2 22.3C609.3 24.7 624.7 28.3 640 27.2C655.3 26 670.7 20 685.8 16.7C701 13.3 716 12.7 731.2 15.3C746.3 18 761.7 24 777 26.7C792.3 29.3 807.7 28.7 823 27.3C838.3 26 853.7 24 868.8 24.2C884 24.3 899 26.7 914.2 25.2C929.3 23.7 944.7 18.3 952.3 15.7L960 13L960 0L952.3 0C944.7 0 929.3 0 914.2 0C899 0 884 0 868.8 0C853.7 0 838.3 0 823 0C807.7 0 792.3 0 777 0C761.7 0 746.3 0 731.2 0C716 0 701 0 685.8 0C670.7 0 655.3 0 640 0C624.7 0 609.3 0 594.2 0C579 0 564 0 548.8 0C533.7 0 518.3 0 503 0C487.7 0 472.3 0 457 0C441.7 0 426.3 0 411.2 0C396 0 381 0 365.8 0C350.7 0 335.3 0 320 0C304.7 0 289.3 0 274.2 0C259 0 244 0 228.8 0C213.7 0 198.3 0 183 0C167.7 0 152.3 0 137 0C121.7 0 106.3 0 91.2 0C76 0 61 0 45.8 0C30.7 0 15.3 0 7.7 0L0 0Z" fill="#1e293b" stroke-linecap="round" stroke-linejoin="miter"></path></svg>